<?xml version="1.0" encoding="utf-8"?>
<!-- Generator: Adobe Illustrator 26.0.1, SVG Export Plug-In . SVG Version: 6.00 Build 0)  -->
<svg version="1.1" id="Layer_1" xmlns="http://www.w3.org/2000/svg" xmlns:xlink="http://www.w3.org/1999/xlink" x="0px" y="0px"
	 viewBox="0 0 595.3 841.9" style="enable-background:new 0 0 595.3 841.9;" xml:space="preserve">
<style type="text/css">
	.st0{fill:none;stroke:#000000;stroke-linecap:round;stroke-linejoin:round;stroke-miterlimit:10;}
</style>
<polygon class="st0" points="271,379.6 269.2,380.6 269.2,381.3 269.6,384.8 269.6,385.2 269.5,385.6 269.3,386.2 269.3,386.4 
	269.5,386.9 269.6,387.2 269.5,387.5 269.3,387.8 269.2,388.4 269.2,388.8 269.4,389 269.5,389.1 269.6,389.2 269.6,390.8 
	269.3,391.1 269.3,391.4 269.2,393.7 269.3,393.9 269.5,394.3 269.6,394.6 269.6,395 269.3,395.4 269.2,395.6 269.2,399.4 
	269.3,400.1 269.4,400.8 269.7,403.5 269.8,404.4 269.9,404.7 270.1,404.9 270.1,405 270.2,410.5 273.7,412.4 277.8,411.3 
	281.9,410.4 282,410.7 283.6,412.5 285.1,415.4 285.2,415.4 287.6,417 289,416.6 295.6,417 297.8,417.4 305.2,419.8 318.5,429.4 
	322.9,432.2 325.5,426.5 326.9,423.3 328.7,420.3 329.9,419.4 329,417.1 329.2,414.8 329.8,413.4 330.4,413.4 330.9,412.6 
	332.8,412.5 334.4,411.3 336.7,411 338.8,411.6 339.9,410.7 342.9,406.7 344.3,402.2 346.3,400.3 346,399.6 345.1,397.6 
	343.2,395.8 343.2,392.2 345.2,390.9 345.9,390.2 346.4,390.2 346.9,389.1 347.3,388.6 350.2,388.6 351,389 351.9,389.1 353,389.1 
	353.4,388.7 354.2,388.6 355.4,390.1 356.5,391.5 357.3,392.1 357.8,392.1 357.9,393.7 358.1,394 359.1,395.9 359.2,396.3 
	359.4,397.8 360.1,399.3 360.4,400.3 360.7,401 360.9,401.3 361.2,401.5 361.8,401.8 364.6,401.9 365,402.1 366.2,402.3 
	366.2,402.8 365.3,404.4 365.4,407.2 365.4,407.3 365.8,409.2 366.3,410 366.4,410.3 366.6,413.2 366.6,414.8 366.6,415.5 
	366.3,417.9 366.1,418.1 365.4,419.1 365.4,419.3 365.3,421 362.1,421 361.7,420.9 361.3,420.6 360.8,420.6 355.3,420.5 
	354.8,420.4 354.4,420.3 353.9,420.1 353.7,420.1 353.4,420.2 353.1,420.5 352.8,420.6 352.6,420.6 352.4,420.5 352.1,420.3 
	351.9,420.2 349.5,420.2 349.2,420.4 349.1,420.7 349.1,421.3 349.4,421.9 350.5,423.1 350.8,423.2 352.5,424.5 352.9,424.5 
	354.5,424.6 354.7,424.5 355.5,423.7 357.2,423.1 357.6,423.1 360.5,423 364.6,423 364.8,423.1 365,423.4 365.2,423.5 366.3,423.6 
	366.4,423.6 366.6,423.7 367.4,425.4 367.6,425.5 369.1,425.5 369.3,425.6 370.2,426.8 371.1,427.1 371.3,427.3 371.7,428.4 
	372.2,430.3 372.4,430.8 372.5,430.8 373.7,430.8 373.9,430.7 374.3,430.4 374.6,430.3 374.9,430.3 375.9,430.3 376.2,430.3 
	376.5,430.5 376.9,431.2 377.5,432.1 378.1,432.5 379.1,433.1 379.3,433.5 379.6,433.9 379.7,434.1 380.1,435.6 380.3,435.9 
	381.1,436.7 381.3,437 382.2,440.7 382.8,442.6 384.7,446.3 384.8,446.7 384.8,447 384.8,448.5 384.4,448.5 384.4,449 385.8,448.9 
	386,448.8 386.4,448.6 387,448.5 387.4,448.5 388,448.8 390,449.4 390.7,449.4 391.8,449.5 392,449.5 393.7,450.9 393.7,451.1 
	394.3,453.2 394.8,454.3 394.9,456.6 395,456.9 395.2,457.3 395.3,457.6 395.4,460.6 395.4,463.5 395.5,464.1 395.7,464.4 
	395.8,464.8 395.9,465.4 395.9,466.8 395.9,467.1 395.6,467.5 395.5,467.8 395.5,468.4 395.6,468.7 395.9,469.2 396,469.6 
	396,470.2 396,470.5 395.6,471 395.4,471.6 395.4,472 395.9,472.8 396.2,474.6 396.9,474.6 397.2,475.1 398,475.1 398.1,475.6 
	400,475.6 400.9,476.1 401.5,476.7 402.2,477.5 402.9,478.8 403.1,479.3 403.5,482.2 403.8,485.6 403.9,486.4 404.1,489.5 
	404,489.8 403.8,490.2 403.7,490.5 403.3,492.3 403.1,492.4 401.7,492.5 401.4,492.6 400.2,493.6 399.8,494.9 399,494.9 
	398.8,493.9 398.5,494.9 397.5,495 397,495.2 396.1,495.4 395.6,495.5 395.3,495.5 395,495.4 394.8,495 394.7,493.4 393.9,492.2 
	393.1,491 392.4,491 391.9,492.3 389.9,495.6 389.2,495.6 388,494.4 387.5,494 386.4,493.6 386.3,493.4 386.1,492.6 384.4,491.7 
	383.9,491.6 383.4,491.6 383.1,491.7 382.7,492.5 382.6,492.6 380.6,492.6 380.4,492.5 380,492.3 378.9,491.4 378.6,491.3 
	378.3,491.2 374.6,491.2 374.5,491.3 374,491.8 373.1,493 372,494.7 371.5,495.4 371,496.2 370.9,496.6 370.5,497.7 369.8,497.7 
	369.1,496.9 368.4,496.4 368.2,496.1 368,495.8 367.9,493.8 367.8,493.5 367.4,493.4 367.3,493.4 367.2,493.5 367.1,494.9 
	366.7,493.9 366.5,493.7 366,493.5 365.2,492.8 365,492.6 364.7,491.6 364.5,491.4 364.1,491.3 363.8,491.4 363.6,491.6 363,492.7 
	362.9,492.8 362.3,493 361.2,493.9 360.9,494.2 360.7,494.3 358,495.2 355.8,495.8 353.9,496 353.6,496.2 353.3,496.3 353,496.3 
	352.7,496 352,494.7 351.9,494.7 350.1,494.7 349.9,494.7 349.5,494.5 349.1,494.4 347.5,494.4 347.2,494.5 345.9,494.9 
	343.8,495.9 343.6,496 343.6,496.3 343.2,497.7 343.1,497.8 342.7,497.9 342.5,497.8 341.3,496.7 341.1,496.7 340.9,496.8 
	340.7,497.4 340.6,497.4 339.8,497.5 339.8,497.9 340,498.1 340.5,498.3 341,498.5 341.3,498.6 342,499.3 342.2,499.7 342.2,500 
	342.2,500.3 341.6,500.4 341.7,501.2 343.1,502.5 343.1,503.3 341.9,503.7 341.6,504 341.2,504.4 341.2,504.6 341.2,505.4 
	341.2,509.7 331.8,511.9 327.1,514.1 322.7,515.9 318.5,518.1 312.4,521.8 304,526.5 301.9,527.4 298,529.5 298.5,525.2 
	298.5,524.1 297.9,522.5 297.1,522.5 296.6,523.7 296.5,525.9 295.1,525.9 295.1,527.5 294.2,528.1 293.4,528.9 291.2,529 
	290.1,528.2 290.1,527.5 289.7,527.5 288.6,528.5 287.6,528.5 287.6,528.9 283.6,528.9 283.7,527.6 284.1,527.1 284.4,525.8 
	284.4,524.9 284.1,524 284.1,523.5 284.6,523 287,523 287.5,523.6 287.6,524.5 289.8,524.5 290,523.5 290,521.4 288.6,520.5 
	288.6,517.5 288.1,517.3 288.1,517.1 288.6,516.9 288.6,513 290,511.9 290,511.1 289.6,511 289.6,510 288.7,508.9 288.2,508.1 
	286.2,506.2 285.5,504.7 284.2,502.2 283.1,501.7 278.5,501.6 278.1,502.1 277.6,502.1 277.5,499.3 276.7,497.4 276.2,496.6 
	276.1,495.7 275.6,495.1 275.6,494.6 276.1,494.2 276.1,493.7 275.2,492.7 275.1,492.2 272.5,490.8 272.1,488.9 271,487.7 
	270.2,487.7 269.6,486.2 268.6,486.2 267.7,485.3 267.7,484.8 268.1,484.8 268.1,483.8 267.8,483.7 267.7,482.3 265.7,481.9 
	263.7,481.4 263.7,480.8 264.2,480.2 265.2,479.3 267.5,478.9 267.7,478.7 267.8,476.4 268.8,476.3 268.7,475.8 269.1,475.5 
	270.1,474.8 269.6,473.9 268.3,473.8 267.7,473.3 267.7,471.4 266.5,471.3 266.3,471.3 266.3,472.3 265.2,472.3 265.2,471.3 
	265.9,471.3 266.5,470.1 267.2,469.4 267.2,468.8 264.3,468.9 264.3,469.4 262.3,469.4 261,468.7 259.1,466.9 258.2,466.3 
	255,466.3 255,465.9 253.3,465.9 253.3,464.4 252.9,464.4 252.8,463.2 253.3,462.9 254.8,462.9 254.9,463.4 255.8,463.4 
	255.8,462.5 254.5,461.7 254.5,461.4 255.1,460.9 255.8,460.9 255.9,460.4 255.4,460 255.3,458.4 256.5,457.7 256.8,456.7 
	256.9,454.9 257.3,454.5 257.6,451.8 258.2,449.9 258.2,449.1 257.8,449.1 257.3,449.7 256.8,449.7 256.8,448.1 255.8,447.8 
	255.8,447.5 256.3,447.2 257.4,447.1 257.4,446.6 256.4,446.6 256.3,445.7 253.9,445.7 253.9,445.1 254.8,443.6 255.7,441.2 
	256.2,440 256.6,438.8 256.5,438.4 256.4,438.2 256.2,438.2 252.4,438.2 251.5,436.6 251.4,434.4 250.8,433.7 249.5,433.7 
	248.9,433.3 248.9,432.8 250.4,432.8 250.4,431.4 248.9,430.3 249,428.3 249.8,427.4 249.8,426.8 248.5,426.4 241.7,410.2 
	240.3,403.8 249.1,394.3 261.3,380 264.2,380 264.2,379.6 265.7,379.6 265.7,378.6 266.7,377.6 269.7,377.6 270.2,378 "/>
<polygon class="st0" points="186,442.4 187.1,443.4 187.7,443.4 190.2,449.1 193,452.8 196.5,456.6 201,455.6 207.1,452.7 
	209.9,451 215.8,451 219.3,451.4 225.7,459.5 227.9,462.7 231.7,466.5 237.1,466.8 246.1,464.3 252.8,463.2 252.9,464.4 
	253.3,464.4 253.3,465.9 255,465.9 255,466.3 258.2,466.3 258.3,468.3 258.7,468.4 258.8,468.9 259.7,469.4 259.8,472.4 
	260.1,472.4 260.2,473.8 259.3,474.3 258.3,474.3 258.3,474.9 257.4,474.9 257.4,475.4 255.8,475.4 255.8,476.8 256.2,477.2 
	256.2,479.7 255.3,481.2 253.4,481.3 252.9,481.8 252.9,483.2 253.3,483.7 253.3,487.2 250.8,489.7 247.8,489.7 246.1,492 
	245.7,492.9 245.2,495.6 244.8,498.1 243.9,498.6 241.5,498.6 240.4,499.8 240.4,500.6 239.4,500.6 239.4,500.1 238.5,500.1 
	238.5,499.5 239.4,499.5 239.4,498.6 238.5,498.6 238.5,498.3 236.9,495.6 235.5,495.6 235.4,495.1 234.1,495.2 233,496.1 
	232.5,496.6 230.4,496.6 229.5,497.1 229.5,497.5 227.5,499.5 224.5,499.5 224.5,500 223.5,501 223.5,502 224,502 224.5,502.4 
	224.5,503.1 222.2,504.2 221.9,506.6 219.3,509.1 219,510.2 218.5,511 216.5,512 216.5,514.6 218.5,515 222.6,516.6 226.6,517.5 
	234.8,519.4 237.4,519.4 237.4,520 236.4,521.4 236.3,522.4 237.4,522.4 237.3,523 236.8,523 236.8,525.4 237.4,525.9 238.6,526 
	240.4,527.5 242.4,528 244.8,529.4 244.8,530 242.3,530.5 241.2,533.1 239.1,533.5 238.1,534.1 237.7,535 235.9,536.4 235.4,538 
	234.8,538 234.8,539.4 232.8,540.4 232.3,540.8 232.3,541.4 233,541.8 233.1,542.4 232.3,542.9 230.7,542.9 229.4,544.3 
	229.3,545.8 228.3,545.8 228.3,545.3 227.4,545.3 226.3,546.2 225.7,545.2 225.5,544.9 225.4,544.4 225.3,544.1 224.9,543.2 
	224.7,542.6 224.5,541.8 224.4,541.6 224.3,541.2 223.9,540.5 223.9,539.9 223.7,539.5 223.4,538.9 223.3,538.3 223.1,537.7 
	223,536.9 223.2,536.3 223.2,535.6 223.3,535.2 223.1,534.3 223.1,534.2 223,533.7 222.8,533.3 222.2,532.8 222,532.4 221.6,531.9 
	221.1,531.4 220.8,531.1 220.3,530.7 219.8,530.8 219.8,530.9 219.7,530.9 219.7,530.8 219.4,530.8 219,530.8 218.9,530.8 
	218.8,531.1 218.7,531.1 218.8,530.7 218.3,530.5 218,530.8 218,530.9 217.9,531 218.5,531.6 218.5,531.7 217.7,531 218.2,530.4 
	217.7,529.9 217.2,529.1 217,528.7 216.9,528.2 216.7,527.8 216.5,527.5 216.4,527.7 216.3,527.6 216.5,527.4 216.4,527.4 
	216.3,527.6 216.1,527.3 216.2,527.2 216.2,527.3 216.3,527.4 216.4,527.2 216.2,526.8 216,526.7 215.9,526.7 216,526.8 
	215.8,526.7 215.8,526.7 215.7,526.6 215.8,526.5 215.7,526.4 215.8,526.3 215.4,525.8 215.3,525.9 215.2,526 215,525.8 
	215.1,525.7 214.9,525.5 214.8,525.5 214.7,525.4 214.7,525.4 214.3,525 213.7,524.4 212.9,524.3 212.5,524 211.7,523.4 
	211.3,523.9 211.2,523.9 211.1,523.9 211.2,523.8 211.5,523.4 211.2,523.2 211.1,523.3 211,523.2 210.9,523.3 210.7,523.4 
	210.5,523.2 210.5,523.2 210.7,523.3 210.9,523.3 211,523.1 210.8,523 210.7,523.1 210.6,523 210.5,523 210.3,523.1 210.6,522.7 
	210.4,522.6 210.4,522.5 210.4,522.4 209.8,522.7 209.9,522.8 209.9,522.8 209.8,522.7 210.3,522.4 210.3,522.3 210.1,522.1 
	210.1,522 210,521.9 209.6,521.9 209.7,522.2 209.6,522.2 209.5,522.2 209.6,522.1 209.6,521.9 209.4,522 209.2,521.8 209.2,521.7 
	209.4,521.9 209.5,521.8 209.9,521.8 209.7,521.3 209.5,521.3 209.5,521.3 209.7,521.2 209.4,520.6 209,520.1 208.5,519.6 
	208.3,520.2 208.3,520.2 208.3,520.4 208.3,520.4 208.3,520.6 208.5,520.7 208.5,521 208.1,520.9 208.1,521 208.4,521.1 
	208.6,521.3 208.6,521.4 207.9,521.2 208,520.8 207.9,520.8 208,520.5 208.1,520.5 208.4,519.5 208.4,519.4 207.9,519.2 
	206.5,518.7 205.8,518.1 205.4,519.1 205.5,519 205.6,519.1 205.6,519.2 205.5,519.2 205.4,519.2 205.4,519.2 205.4,519.2 
	205.4,519.2 205.3,519.3 205.3,519.5 205.3,519.5 205.3,519.7 205.5,519.8 205.8,520 205.6,519.9 205.6,519.9 205.4,519.8 
	205.2,519.8 205.3,519.8 205.1,519.7 205.3,519.7 205.2,519.2 205,519.1 205,519 204.3,518.7 204.3,518.8 204.2,518.7 204.1,518.7 
	203.9,519.1 204.3,519.4 204.3,519.4 204.2,519.4 204.1,519.3 203.8,519.1 203.7,519.1 203,518.7 203,518.7 203.8,519.1 
	204.1,518.7 204,518.7 203.9,518.8 203.7,518.7 203.7,518.7 203.6,518.7 203.4,518.6 203.3,518.5 203.3,518.5 203.9,518.8 
	204,518.6 204,518.5 203.5,518.2 203.6,518.2 203.9,518.2 204,518.2 204.2,518.2 204.2,518 204.2,518 204.1,517.9 204.1,518 
	204,518 203.8,518 203.8,518 203.7,517.9 203.7,517.9 203.7,517.8 203.7,517.8 203.6,517.8 203.6,517.8 203.5,517.7 203.4,517.8 
	203.3,517.9 203.3,517.3 203.2,517.3 203.2,518.1 203.1,518.1 202.7,518 202.5,517.9 202.5,517.8 201.6,517 201.6,517.1 201,516.6 
	200.3,515.8 199.7,515.3 199.6,515 199.3,514.6 198.5,514.3 197.6,513.3 197.3,513.3 197.1,513.5 196.9,513.5 196.9,513.2 
	197.1,513 197.5,512.9 197.5,512.5 197.2,512.3 197,512.4 196.9,512.3 197,512.2 196.8,511.9 196.5,512 195.9,511.4 195.6,510.8 
	195.7,510.7 195.6,510.6 195.3,510.6 195.1,510.6 194.6,510.4 194.2,510 194,509.6 193.7,509.3 193.5,508.8 193.5,508.7 
	193.2,508.5 192.9,508.3 192.8,508.5 192.7,508.6 192.6,508.8 192.7,508.8 192.7,508.9 192.6,508.8 192.6,508.6 192.6,508.5 
	192.4,508.3 191.7,507.9 191.5,507.5 191.2,507.4 190.9,507.3 190.8,507.4 190.8,507.4 190.9,507.6 190.9,508.1 190.6,508.1 
	190.7,508 190.8,508 190.8,507.6 190.8,507.5 190.6,507.7 190.4,507.8 190.2,508.2 190,508.2 189.5,507.9 189,507.4 189.9,506.8 
	190.4,507.1 190.7,506.6 190.9,506.6 191,506.3 190.5,506.1 190.1,506.6 189.8,506.4 189.3,506.8 189,506.8 189,507 189.1,506.9 
	189.1,507 188.9,507 188.9,506.9 188.7,507 188.7,507.2 188.7,507.2 188.6,507.2 188.6,507.3 188.5,507.3 188.4,507.3 187.9,507.1 
	187.8,507.2 187.8,507.1 187.6,506.9 187,506.6 186.6,506.3 186,505.8 185.7,505.5 185.5,505.2 185.4,505 185.3,505.1 185.3,505 
	185.4,505 185.3,504.9 185.1,504.7 184.7,504.6 183.9,503.6 183.5,503.4 183.5,503.3 183.3,503.2 182.8,503 182.7,502.9 
	182.4,502.7 182.1,502.5 181.5,501.8 181.2,501.5 180.6,501.1 180.4,500.9 180.2,500.8 179.2,500.3 178.9,500.2 179.4,499.7 
	179.7,499.6 180.1,499.6 180.4,499.6 180.8,499.3 180.9,499 181,498.5 181.2,498.2 181.5,498.1 182.1,498.1 182.5,498.4 
	182.5,498.5 182.6,498.5 182.7,498.5 182.9,498.6 183,498.5 183,498.3 183,498.3 183.3,498.5 183.4,498.4 183,498.2 182.9,497.6 
	182.6,497.5 182.2,497.6 181.8,497.6 181.4,497.6 181,497.8 180.9,497.8 180.9,498.2 180.9,498.6 180.8,498.9 180.6,499.1 
	180.3,499.1 180.1,499.1 179.9,498.9 179.5,498.9 179.4,498.7 179.1,498 179,497.9 178.9,497.7 179,497.1 179.3,496.6 179.7,496.5 
	180.5,495.7 180.8,495.2 180.9,494.9 180.8,494.7 180.7,494.2 180.3,494.2 179.6,494.3 179.4,494.4 179.4,494.5 179.6,494.8 
	179.7,495 179.2,495.2 178.1,495.3 177.9,495.3 177.6,495.4 177.4,495.6 177.3,495.9 177.1,496.3 177.1,496.6 177.4,496.7 
	177.6,496.6 177.8,496.4 178,496.4 178.3,496.5 178.7,496.7 178.8,497 178.7,497.2 178.4,497.3 178.3,497.4 178.6,497.8 
	178.6,498.3 178.8,498.7 179.1,499 179.1,499.3 179.1,499.4 179,499.9 178.6,500.2 177.4,500 176.2,499.4 175.5,499.4 174.8,499.5 
	174.6,499.6 174.4,499.6 174,499.6 173.3,499.6 172.8,499.5 172.5,499.2 172.4,499.2 172,499.2 171.2,498.6 170.1,497.3 
	169.9,497.2 169.6,496.7 169.3,496.3 168.9,496 168.4,495.7 167.7,495.4 167.5,495 166.9,494.6 166.5,494.5 166.2,494.1 166,493.8 
	165.9,493.2 165.5,492.2 165.2,491.9 164.9,491.8 164.8,491.4 164.9,491.3 165,491.2 165,490.9 164.6,490.5 164.4,490.2 
	164.2,489.9 164.1,489.7 163.8,489.6 163.5,489.6 163.2,489.6 163,489.7 162.7,489.9 162.1,489.9 161.6,489.8 161.1,489.5 
	161.2,489 161.1,488.7 160.9,488.3 160.6,488 160.1,488 159.9,488.1 159.5,488 159.3,487.6 159.3,487.2 159.4,487 159.5,486.8 
	159.5,486.6 159.5,486.4 159.3,486.2 159,486 158.1,486 157.9,486 157.6,486.2 157.6,486 157.1,486.2 158,486.9 156.9,486.9 
	156.8,486.8 156,486.7 155.2,487.2 154.8,487 154.3,487 153.8,486.9 153.7,486.8 153.7,486.5 153.4,486.4 152.7,486.4 152.5,486.7 
	152.4,487 152.6,487.2 152.8,487.4 152.8,487.6 152.7,488.1 153,488.3 153.3,488.2 153.7,488.4 153.7,488.6 153.6,489.1 
	153.4,489.2 153.3,489.5 153.1,489.8 153.4,490.2 153.5,490.4 153.4,490.6 152.9,490.7 152.3,490.5 151.4,490.4 150.6,490.4 
	150.2,490.6 149.9,490.8 149.5,490.8 149.2,490.7 148.9,489.4 148.7,489.2 148.2,488.8 148.2,488.9 148.1,488.9 148.1,488.8 
	147.9,488.6 147.8,488.7 147.7,488.7 147.8,488.5 147.7,488.5 147.6,488.6 147.4,488.5 147.5,488.4 147.4,488.3 146.7,488.2 
	146.6,488.2 145.9,488.2 145.8,488.3 145.8,488.4 145.6,488.5 145.6,488.5 145.3,488.6 145,488.6 144.9,488.6 144.4,488 
	143.7,487.4 143.2,487.2 143.2,486.9 142.8,485.8 142.8,485.6 142.5,485.2 142.1,484.9 142,484.7 141.7,484.5 141.7,484.3 
	141.5,484.1 141.3,483.8 141.2,483.7 141.3,483.3 141.1,483 140.8,482.8 140.7,482.6 140.7,482.4 140.6,482.1 140.3,481.9 
	138,480.5 137.5,479.8 137.2,479.6 136.9,479.2 136.9,478.7 137,478.4 137,478.2 136.8,477.3 137,477.1 137,477.2 137.3,477.1 
	137.3,476.6 137.5,476.7 137.7,476.5 137.5,476.3 137.2,476.1 137.1,475.9 137.3,475.6 137.4,475.7 137.5,475.7 137.6,475.5 
	137.5,475.2 137.7,475.2 137.8,475 138,475.1 138.7,475.7 139.1,476 139.5,476 139.8,475.8 140,475.5 139.9,475 139.7,474.6 
	139.7,474.1 139.8,473.8 140,473.4 139.9,473.2 139.4,472.7 139.2,472.4 138.9,472 138.8,471.8 138.7,471.3 138.4,471.1 
	138.1,470.8 137.9,470.3 137.9,470.1 137.9,469.9 137.8,469.6 137.7,469.5 137.5,469.5 137.6,470 137.2,469.8 137.2,469.1 
	136.9,468.7 136.9,468.4 136.7,467.7 136.5,467.2 136.2,466.9 136.2,466.6 135.9,466.4 135.5,466.3 135.2,466.2 134.9,465.8 
	134.9,465.5 134.8,465.3 134.8,464.9 134.4,464.8 134.1,464.8 133.6,464.4 133.6,463.9 133.5,463.7 133.1,463.3 132.8,463.1 
	132.5,462.5 132.5,462.1 132.3,461.8 133.4,461.2 137.7,458.1 138.4,457.5 138.9,456.9 142.1,450.5 143.1,448.5 143.5,446.7 
	143.6,446.6 143.9,446.6 144,447 144.7,448.3 145.6,448.8 146,449.2 147.2,450.3 147.5,450.4 147.8,450.4 148.1,450.2 148.7,449.9 
	151.4,450 152.1,450.4 152.3,450.5 152.6,450.4 154.5,449.6 156.6,449.6 158.4,450.8 158.7,451 159,451.1 162.9,451.1 165.2,452.3 
	165.2,453.1 166.4,453.6 167.2,453.5 167.3,453 166.8,452.9 166.8,452.1 166.3,452 166.3,451.1 167.7,449.4 168.5,448.6 
	169.3,448.7 170.5,447.3 170.5,447 168.5,446.8 168.6,445.9 169.8,444.6 172.3,443.7 173.9,443.1 175.4,442.4 177.9,440.9 
	180.7,439.9 181.2,439.9 181.8,441.3 183.6,442.3 "/>
<polygon class="st0" points="128.7,196.6 128.2,198.7 128.4,199.1 128.6,200.9 129.9,200.9 130.5,201.6 130.9,202.7 130.9,203.3 
	130.4,203.5 130.5,204.7 132.3,204.6 132.3,204.1 133.8,202.7 134.4,202.7 134.4,204.2 135.4,204.2 136.9,203.3 138,203.3 
	138.2,203.8 138.8,203.8 139.3,202.4 140.7,200.8 144.1,199.6 145.5,199.5 147.5,200.4 149,200.5 152.1,196.8 153.3,196.7 
	153.3,197.2 157.1,197.3 158.2,198.2 159.6,198.8 159.9,198.8 160.9,197.5 162.9,197.5 163.8,198.2 164.4,198.6 164.8,199 
	165.3,199.6 165.9,200.6 166.8,200.7 168.6,202.7 169.2,202.7 170.1,202.1 171.2,200.1 172,199.7 172.5,199.7 174.3,199.9 
	174.6,199.9 175.3,199.3 176,198.4 177.2,198.2 177.5,198.2 177.8,198.3 178.7,199 179.5,200.6 180.7,201.7 182.2,202.5 
	182.2,203.8 182.6,204.4 182.7,207.1 182.2,207.8 182.1,210.1 183,211.2 183.1,212.4 182.6,213.1 182.6,214 184,215.5 184.4,217.5 
	184.7,218.8 184.7,219.2 184.6,219.8 184.1,221.1 183.5,222.8 183.5,224.5 184.8,226.2 184.9,228.1 185.3,229.4 187.3,229.5 
	190.7,227.1 192.3,226.4 194,225.3 195.5,223.8 196.5,223.3 197.9,223.3 198.9,224.2 199.5,224.3 199.5,225.3 200.3,226.2 
	200.9,227.1 201.3,228.2 202.4,228.7 203.9,228.8 206.8,229.8 208.6,231 209.7,234.1 210.9,236.4 211.7,236.5 213.9,239.4 
	214.7,240.3 217.6,241.7 219.1,242.6 222.4,242.8 224.1,243.1 224.1,246.6 225.1,247.4 225.9,247.8 226,248.5 226,249.1 
	225.9,249.2 225.6,249.5 225.5,251.1 225.6,251.5 227.7,255 228,255 228.2,255 228.8,253.6 229.4,253.1 230.8,253 231.2,253.5 
	232.1,253.5 232.5,252.8 232.7,252.6 233,252.6 234.8,255.2 235.2,255.9 236.3,256 236.5,257 236.7,257 237.5,254.4 237.7,253.2 
	238.5,253.2 238.9,254 239.5,255.1 241.7,255.1 242.7,257.4 244,257.4 245.3,258.8 246.5,258.9 246.8,259.4 248.8,259.4 
	250.5,257.4 250.9,257 252.3,257 253.7,256 255,255.6 256.6,255.1 257.4,254.3 258.4,253.1 259.6,253.1 260.8,254.5 261.3,255.5 
	262.7,256.9 264,257 264.2,257 264.3,257.5 264.1,259.1 262.9,260 262.8,261.2 262.2,262 261.9,263.6 261.2,264 260.3,266.3 
	259.9,267.7 259.5,268.1 257,270.5 257,273 256.5,273.6 256.5,274.9 257.5,276.5 257.5,278 258,278.3 257.5,278.4 257.5,279.8 
	256.9,279.8 256.9,280.4 257.9,280.8 258.5,281.8 259.4,282.3 259.4,283.8 260.3,284.2 261.3,285.6 261.7,290 262.9,290.1 
	263.6,290.6 263.6,291 261.8,292.5 261.3,296.4 260.4,297.9 258.9,298.8 257.9,300.3 256.5,301.3 255.5,301.3 255,301.8 
	252.6,301.7 250.6,302.8 248.8,304.3 247.7,306 246.8,306.1 245.7,307.1 243.4,307.6 242.8,308.1 239.9,308 239.4,307.6 
	236.5,307.6 235,308 234.4,309 232.5,309.5 228.7,313.4 227.7,313.3 227.2,313 224.3,313 221.8,314.3 221.7,316.4 222.8,317.2 
	225.7,317.4 228.2,317.9 228.2,319.2 225.8,319.8 224.3,320.6 223.3,321.7 223.3,322.7 223.7,323.7 224.2,324.1 225.7,324.7 
	227.6,325.7 232,328 234,330 234,331.1 234.4,331.5 234.9,331.9 237.4,332.4 242.1,332.7 244.6,333.1 245.2,333.5 249.1,333.5 
	251.6,331.6 252.5,331.6 252.6,332.5 258.4,332.5 258.4,333.1 261.8,333 263.3,333.4 264.2,333.9 264.2,334.5 264.7,335 265.3,335 
	265.3,335.5 266.2,336.1 266.3,336.9 266.7,336.9 266.7,337.9 266.2,339.5 264.7,341.3 264.7,342.3 264.3,342.3 262.2,344.3 
	260.9,344.3 259.7,345.1 257.5,345.3 255.5,346.2 253.5,347.7 253.5,349.7 254.9,350.3 254.9,352.6 254.4,352.7 254.4,355 
	254.9,355.1 255,356.6 256.9,359.2 257.3,360.3 257.4,363.6 257.8,364 257.8,364.5 255.4,365.9 254.5,365.9 248.8,363.6 
	245.2,362.7 236.4,362.3 232.3,362.3 227,364.4 220.1,366.7 218.7,366.6 218.2,366.2 217.6,366.7 216.3,366.8 215.7,367.2 
	214.6,367.2 214.2,366.7 214.2,366.3 213.1,366.3 212.6,366.4 211.3,367.2 210.6,367.2 209.7,367.1 207.4,366.2 206.7,366.2 
	205.4,368.1 204.8,368.1 204.1,366.8 203.7,366.8 203.4,367.7 203,366.6 201.8,366.7 201.5,367.6 200.4,367.8 199.8,368 199.1,368 
	195.1,367 195.1,365.6 195.7,365.6 196,365.2 196,364.6 194.7,363.7 193.2,363.7 192.7,363.2 192.7,362.6 192.1,362.6 191.6,363.5 
	189.6,363.6 189.3,364.4 188.7,364.7 187.3,365.7 186.5,365.8 184.8,367.4 183.4,367.4 182.4,366.5 180.9,366.4 179.3,365 
	177.6,364.2 175.4,363 173.6,362.9 173,362.3 173,361 173,359.4 172.2,358.3 171.6,356.6 170.1,355.1 169.6,353.3 169.2,352.7 
	168.7,352.2 167.5,351.6 165.8,350.7 164.8,350.7 164.9,351.6 163.8,351.6 163.3,351.2 161.7,351.1 161.3,349.6 157,349.6 
	157,349.1 155,349.1 155.1,349.7 154,349.6 154,348.6 153.4,348 152.6,347.5 152.6,346.9 150.3,346.1 150.1,345.2 148.3,345 
	147.7,344 147.6,343.1 147.1,343.1 147.1,343.7 146.1,343.7 145.8,343.3 145.8,342.1 146.9,340.4 147.3,339.9 147.4,339.1 
	148.9,337.3 148.9,336.7 148.4,336.7 148.3,335.9 148.9,335.8 150.2,335.8 150.2,335.2 148.5,333.6 148.1,333.1 147.4,331.9 
	147.3,330 146.9,328.4 145.3,325 144.8,323.2 144.7,323.1 142.7,322.9 140.6,322.4 140.1,322 139.4,321.1 138.7,320.9 138.3,319.2 
	137.4,317.8 136.8,316.6 136.4,316.1 136.4,316 136.6,315.7 137.2,315 137.2,314.2 135.9,313.3 135.9,311.7 134.7,310.8 
	133.5,309.7 131,309.6 129.5,308.3 129.5,306.5 130.2,305 130.9,303.8 131.8,303.3 133.7,303.3 134.5,302.5 134.5,301.9 133,301.8 
	133,300.5 132.1,299.9 130.6,299.9 129.6,300.9 126.6,300.8 125.8,301.9 125.8,302.8 124.8,302.8 121.4,300.3 121.5,295.1 
	122.9,293.9 122.4,293.1 121.7,291.2 121.4,290.3 121.4,289.9 122.3,289.2 122.5,289 122.5,287.2 122.1,285.6 121.5,285.2 
	120,284.8 118.4,284.3 117.8,284 117,283.2 115.3,283 114,281.7 112.9,281.1 112.8,279.8 114.3,279.5 114.3,279.1 114.1,278.5 
	113.2,277.2 112.9,276.5 112.9,276.1 113.9,275.2 113.9,273 114.9,272.3 114.9,271.4 114.2,270.8 114,270.4 114,269.5 115,268 
	115.4,266.3 115.4,265.6 115,264.5 116.4,263.6 116.4,263 114.2,261.7 113.8,260 113.3,258.9 112.9,257.9 112.2,257.2 108.9,255.7 
	108,255.1 107.7,253.9 105.5,251.8 103.7,251.6 100.8,250.3 100.8,247.9 101.7,246.9 101.8,244.4 101.4,243.7 101.3,242 99.9,241.5 
	99.9,239.5 100.8,238.4 101.3,237.3 101.9,236.4 101.9,235.8 98.1,235.7 98,235.2 95.8,235.2 95.2,234.3 94.5,233.2 92.3,231.5 
	92.2,230.3 91.2,230.3 89.3,228.8 88.6,228.7 87.1,226.4 85,223.4 84.7,222.8 83.7,222.6 83.5,223.4 82.8,223.5 82.9,222.4 
	83.3,222 83.2,220.9 82.8,220.8 81.9,219.4 81.8,215.7 81.7,215.2 79.9,214.7 78.1,214.1 75.2,214 75.2,213.5 76.2,212.6 77,212.5 
	77.6,211.9 77.7,211.2 79.3,210.7 79.6,211.1 80.8,211.2 80.8,210.8 80.1,210.1 80.1,209 81,208.9 82,210.1 82.4,210.1 82.6,209.3 
	83,209.4 83.4,210.8 84.3,210.8 84.4,209.9 85.9,209.9 86,210.6 88.7,210.8 89.6,211.8 90.1,211.8 90.1,209.9 88.9,208 88.8,205.6 
	89.9,205 91.4,205 93.9,203.6 95.7,203.7 96,204.1 97,204.1 98.2,202.8 99.9,200.9 100.7,200.8 102.7,199.4 102.7,199 101.2,198.3 
	101.2,198 102.6,197.1 104.1,196.4 104.2,195.7 105.4,195.7 105.5,197.3 106.9,199.1 108.2,199 109.3,198.2 111.3,198.2 
	112.5,197.1 113,197.1 113.1,196 114.5,195.3 115.2,195.3 115.4,196.5 115.7,196.8 118.2,198.1 119.8,198.2 121.3,197.6 
	122.7,196.3 123.8,196.3 123.8,197.3 124.3,197.8 124.8,197.9 125.9,197.9 126.2,197.8 129.3,194.3 130,195.1 "/>
<polygon class="st0" points="530.3,469.8 528.9,470.7 527.3,471.4 526.5,472.8 526.5,473.4 529.4,473.4 529.4,474.3 528.5,475.4 
	528.5,476.3 530.7,476.3 530.8,476.4 531,476.7 531,478.3 531.2,478.7 531.5,479.3 531.8,488.9 531.7,489.1 531.2,489.6 
	531.2,491.1 529.4,493.3 529.4,494.3 528.9,494.9 528.4,495.4 527.6,496.3 527.4,497.6 527,498.2 527,500.6 526.8,500.9 
	527.1,501.1 529.7,501.2 532.4,502.3 532.5,502.5 532.5,502.7 531.8,503.2 530.6,505.3 530.3,505.7 530,508.4 529.9,508.5 
	528.8,509 528.4,509.3 528.1,509.9 527.7,511.1 527.3,511.7 527.3,514.6 526.9,514.7 526.4,515.6 526.4,517.6 525.8,519 524,521.5 
	523,523.2 522.1,523.7 519.6,523.8 519.1,523.3 518.1,523.3 518.1,523.8 517.1,524.8 513.6,524.9 512.7,525.5 512.7,526.4 
	513.2,526.8 513.2,527.5 514.1,528.3 514.1,529.6 513.8,530.9 512.7,532 512.3,532 511.5,533.3 511,533.5 510.5,533.6 509.7,533.1 
	508.5,532.6 506.8,532.5 506.2,532.9 504,533 503.6,532.9 502.8,532.2 502.7,529.7 502.5,529.3 502.3,529.2 501.7,529.1 501,529.4 
	500.1,530.3 499.4,531.2 499,531.7 494.8,531.8 494.1,533.1 493.5,534.3 493.4,534.6 493.4,536.2 493.8,536.4 494.8,537.3 
	494.9,537.7 494.8,538.8 494.6,539.4 494.3,539.7 493.9,539.8 493.1,539.2 492.7,538.9 492.1,538.8 491.8,538.9 491.4,539.2 
	491,539.3 490.1,539.4 489.8,539.2 489,538.5 488.6,538.4 486.9,538.5 486.4,538.7 485.4,539 484.7,539.7 482.3,541.8 481.6,542.1 
	480.3,542.2 479.6,541.9 478.8,541 478.5,541 475.2,542.9 471.4,545.5 471.1,546.2 469.6,548.1 468.4,548.4 467.7,551.5 
	466.4,556.1 466.3,556.7 466.6,557.2 466.8,558.3 466.8,559.3 466.6,560.7 465.5,562.4 465.4,563 465.5,564.4 465.8,564.8 
	466.6,565.6 466.8,566 466.9,566.8 466.8,567.6 466.2,569.6 466,570.3 466.1,574.1 466.1,578.2 465.7,579.1 466,579.4 467.2,579.2 
	468.3,578.2 469.3,578.3 467.3,581.2 467.3,586.1 468.7,586.4 470.5,588.2 473.2,590.8 475,592.1 475,592.6 475,593.1 474.5,593.6 
	473.2,594.6 472.2,595.1 471.1,596 469.5,596.2 468.9,596.4 466.9,597.4 465.8,597.3 465.6,597.1 464.9,596.2 464.5,596.2 
	462.5,596.6 461.5,597 460.4,598.2 460,599.1 459.7,600.2 459.1,600.9 458.4,600.8 458.3,600.3 457.5,600.3 456.9,601.3 
	456.6,601.3 456.1,601.3 455.6,600.8 455,600.4 452.8,600.5 451.8,599.4 449.2,599.5 447.1,601.8 444.3,605.5 443.9,606.1 
	443.8,606.5 443.8,607 444.1,607.5 444.6,608.2 444.6,608.6 444.6,609 444.3,609.5 443.4,610.7 442.9,611.7 442.6,612.5 442.5,614 
	442.3,614.4 441.6,615 440.1,616.2 439.6,616.3 438.7,616.3 438.2,616.3 437.5,615.9 435.4,614.9 434,614.4 433.4,614.2 
	430.3,614.1 429.8,614.1 429.3,613.9 428.6,613.9 427.6,614.8 426.1,614.9 424.5,615.4 423.3,615.8 421.6,615.9 421.3,618 
	421.1,620.3 420.2,622.5 420.3,629.6 420,630 418.6,631.8 418.3,632 418.3,632.4 418.2,634.4 417.8,636.9 417.3,638 416.8,638.7 
	415.8,639.5 414,640.5 413.6,640.6 411.8,640.7 410.8,641.6 409,641.8 407.9,642.7 401.8,642.9 401.7,640 401,639.1 400.4,638.5 
	398.5,638.1 398,637.9 397.2,637.4 396,636.8 395.5,636.8 395,637 394.3,637.4 391.7,639.9 390.5,640.1 389.1,641.1 387.5,642.4 
	378.4,645.9 375.4,647.2 374.8,648 374.5,649.6 373.1,650 372.4,650.3 370.4,649 368,647.7 366.3,646.3 365.8,645.4 365.5,643.4 
	365.7,641.6 367,640.2 367.1,638.2 364.7,638.1 364.7,637.6 365.7,635.8 365.7,635.1 365.6,633.2 365,632.4 363.4,630.7 
	362.7,629.4 360.7,629.5 360.3,630.6 359.7,630.5 359.7,629.5 359.9,629 359.9,627.2 359.3,626.3 357.4,625.2 356.6,625.1 
	355.7,625.6 351.8,625.7 351.1,626.6 350.9,626.7 350.6,626.6 349.7,625.3 348.3,624.5 347.7,624.1 344.6,623.2 342.6,622.9 
	342.4,622.7 342.2,621.8 342,621.7 340.2,622.2 339.9,622.3 339.6,623.1 337.8,623.2 337.9,620.7 338,620.4 339.3,620.1 
	339.4,619.2 339.6,618.9 341.3,617.6 342.5,616.9 342.7,616.7 342.9,616.5 342.9,616.2 342.8,615.8 342.4,615.1 342.4,614.8 
	342.5,614.4 343,613.6 343.2,613 343.2,612.4 343.6,611.1 344,610.5 344.6,609.3 344.5,608.6 344.4,607.9 344.7,607.3 344.7,606.6 
	345.3,604.8 345.5,604.4 345.6,603.8 346.4,603 346.5,601.5 347,600.6 348,598.2 348.9,598.2 349.3,598.6 350.8,598.6 350.7,595 
	350.3,594.4 350.1,587.5 351.1,587.5 352.2,588.5 352.3,590 353.8,590.6 353.8,591 356.1,591.1 357.2,591.7 357.7,592.1 358.1,593 
	358.8,596.6 359.3,596.6 359.3,597.5 360.4,597.5 361.7,596.5 362.7,596.4 364.3,594.3 364.8,593.4 364.8,589.3 364.7,589 
	364.1,588 362.1,585.9 361.3,585 361.3,583 361.1,582 360.6,581.2 359.7,580.1 359.7,579.5 360.6,579.4 360.6,578.1 359.5,577.3 
	359.1,577 358.6,575.6 357.2,574.4 357.2,573.9 357.6,573.4 357.6,570 358.6,570 358.6,570.5 359.1,570.5 360.1,569.5 362.1,569.5 
	362.1,569 362.6,568.4 362.6,566.4 363.1,566.4 363.7,567.5 364.6,567.4 364.6,566.6 366.1,566.4 366.8,565.6 369.6,564.9 
	370.4,564.4 371.5,562.3 371.5,561.4 370,561.4 369.6,561 369.3,560.8 367.7,560.3 366.1,559.9 363.4,557.8 361.6,555.5 
	360.7,555.5 360.8,554.5 362,553.7 363.1,553.2 363.5,553 363.9,552.6 364.3,552.5 366.5,551.6 368.5,550.8 369.8,550.4 369.8,549 
	368.3,548.8 368,548.4 367.6,548 367.3,547.3 367.3,546.9 367.5,546.4 368,545.6 369.1,545.4 369.8,543.9 371.4,543.6 372.7,543.2 
	373.5,542.4 374.8,542.4 375.8,541.5 375.9,537.1 376.1,536.9 376.3,536.8 376.7,536.8 377.1,537 377.7,537.3 378.3,537.4 
	378.7,537.4 381.8,536.5 382.1,536.4 382.3,536.1 382.4,535.8 382.3,533.8 382.2,533.5 381.2,531.7 381,531.3 381,530.8 
	381.2,530.2 381.7,529 383.4,526.1 384.1,524.9 384.1,523.9 382.7,523.9 382.4,523.8 381.3,522.6 381.2,522.2 381.3,522.1 
	381.4,521.9 382.4,521.5 384.1,521.2 385,520.6 386.7,520 387.9,519.6 390.1,519.3 390.1,518.3 392.3,516.1 394.2,513.4 
	394.7,513.2 395.1,513.1 395.3,513.2 396.6,513.3 401.5,513.2 401.8,513.1 403.2,512 404.5,510.7 405.6,508.8 407.5,504.7 
	408.6,503.1 409.3,502.3 410.3,501.7 413.3,500.3 414.6,499.8 420.1,499.7 422.2,500.6 423.2,500.5 423.1,500.1 423.7,500.1 
	424.5,498.6 427.1,497.8 427.6,497.6 428.6,496.6 430.2,495.9 430.5,495.6 431.5,494.6 432.4,494 434.3,492.1 434.7,492 435,492.1 
	437.6,493.5 439.5,494.8 439.9,494.9 440.4,494.9 440.9,496.6 441.2,496.7 442.4,497.1 443.5,497.3 443.5,497.8 448.4,497.8 
	449.1,498.1 450.2,498.4 450.5,498.6 451.1,499.5 451.5,499.7 452.7,500.6 453.4,501 453.8,501 454.1,501 454.8,500.5 455.2,499.9 
	455.4,499.7 455.9,499.3 456.4,499.1 457.6,498.9 457.9,498.7 458.8,497.4 458.8,497.2 458.9,496.7 458.8,492.4 458.9,492.2 
	459.1,491.9 460.3,490.6 461.1,490.3 462.2,489.2 463,487.2 465.7,485 466.5,485 466.6,484 467.6,483 468.2,482.9 468.6,481.5 
	470.5,479.6 473,478.6 475.1,478 476.4,478 478.3,476.4 479,474.8 479.8,473.8 480.1,472 480.6,471 481.7,470.4 482.9,470.3 
	483.2,470 484.2,470.8 486.3,470.8 487.9,468.9 489.6,467.1 490.4,466.4 490.7,466.2 491.2,466.1 491.7,466.2 492,466.3 
	492.3,466.6 493.8,468.9 494.1,469.1 494.4,469.2 497.6,469.1 498.1,469.5 498.5,469.2 499.6,468.7 500.3,468.6 501.3,468.4 
	501.7,468.2 503.1,466.9 503.2,466.5 503.9,466.5 505.5,467.9 506,468 507.4,468 507.6,468.4 508,468.4 508.6,467.9 511.5,467.8 
	511.6,467.3 512,467.3 512.8,468.4 514,470.1 514.9,470.1 514.9,470.1 516.3,468.2 516.9,467.7 517.2,467.6 517.5,467.6 
	517.7,467.7 517.9,468.3 518.1,470.5 518.2,470.6 518.4,470.5 520,469.2 520.4,469.1 520.8,468.8 521.4,468.5 522.8,466.7 
	524.3,464.3 524.8,463.9 525.3,463.6 525.5,463.4 526.2,463.5 526.7,463.5 526.8,464 527.8,465.9 528.7,466.9 530.3,468.9 "/>
<polygon class="st0" points="261,468.7 262.3,469.4 264.3,469.4 264.3,468.9 267.2,468.8 267.2,469.4 266.5,470.1 265.9,471.3 
	265.2,471.3 265.2,472.3 266.3,472.3 266.3,471.3 266.5,471.3 267.7,471.4 267.7,473.3 268.3,473.8 269.6,473.9 270.1,474.8 
	269.1,475.5 268.7,475.8 268.8,476.3 267.8,476.4 267.7,478.7 267.5,478.9 265.2,479.3 264.2,480.2 263.7,480.8 263.7,481.4 
	265.7,481.9 267.7,482.3 267.8,483.7 268.1,483.8 268.1,484.8 267.7,484.8 267.7,485.3 268.6,486.2 269.6,486.2 270.2,487.7 
	271,487.7 272.1,488.9 272.5,490.8 275.1,492.2 275.2,492.7 276.1,493.7 276.1,494.2 275.6,494.6 275.6,495.1 276.1,495.7 
	276.2,496.6 276.7,497.4 277.5,499.3 277.6,502.1 278.1,502.1 278.5,501.6 283.1,501.7 284.2,502.2 285.5,504.7 286.2,506.2 
	288.2,508.1 288.7,508.9 289.6,510 289.6,511 290,511.1 290,511.9 288.6,513 288.6,516.9 288.1,517.1 288.1,517.3 288.6,517.5 
	288.6,520.5 290,521.4 290,523.5 289.8,524.5 287.6,524.5 287.5,523.6 287,523 284.6,523 284.1,523.5 284.1,524 284.4,524.9 
	284.4,525.8 284.1,527.1 283.7,527.6 283.6,528.9 287.6,528.9 287.6,528.5 288.6,528.5 289.7,527.5 290.1,527.5 290.1,528.2 
	291.2,529 293.4,528.9 294.2,528.1 295.1,527.5 295.1,525.9 296.5,525.9 296.6,523.7 297.1,522.5 297.9,522.5 298.5,524.1 
	298.5,525.2 298,529.5 297.6,529.5 297.6,530.4 296.6,531.4 296.6,531.9 299.1,533.9 299.1,536.5 298.6,536.5 298.6,538.4 
	299.3,540.4 299.6,541.8 300.1,542.8 300.6,542.9 300.6,545.2 302,546.4 302,547.2 300.6,548.4 300.6,549.3 301,549.4 302,549.9 
	303.6,551.3 304.4,551.4 305.7,552.8 307.6,552.8 307.7,554.4 309.1,556.3 309.2,557.7 309.6,558.4 309.6,561.3 306.5,561.1 
	303,561.1 297.1,561.4 293.9,562 291,562.8 288.1,563.7 286.7,564.7 286.1,565.6 285.7,567.9 285.7,571 287,573 288.7,576.1 
	289.7,577.3 291.3,577.7 294.3,578.5 296.2,578.9 295.7,579.5 295.6,580 295.6,582.2 295,582.5 294.8,582.7 294.6,583.8 
	293.8,584.9 293.6,586 292.3,586.8 292.2,588.2 291.8,588.9 290.8,588.9 290.8,588.1 290.7,587.8 289.9,587.5 289.6,587.5 
	289.3,587.7 287.8,588.5 287.6,589.4 285.7,589.4 285.2,589.8 284.5,589.9 283.6,591.2 280,589.2 278.9,588.5 278.2,588 
	278.1,587.7 278.1,587.4 278.3,587 278.8,586.3 279.6,585.6 280,585.1 280.2,584.5 280.2,582.7 280.2,582.3 279.3,580.8 
	278.8,579.8 278.4,579.4 278,579.2 277.8,578.9 277.7,576.6 277.4,576 276.9,575.3 276.1,574.6 275.4,574.4 274.8,574.3 
	274.4,574.4 273.6,574.8 272.9,575.3 272.3,575.9 271.8,576 271.3,575.9 270.8,575.7 270.5,575.2 270.3,573.8 270,573.2 269.6,573 
	268.3,572.8 268.1,572.8 267.9,572.5 267.6,570.9 267.4,570.1 267.1,569.9 266.8,569.9 266.3,570 265.9,570.3 265.6,570.3 
	263.6,570.4 263.1,570.3 262.2,569.7 261.6,569.1 260,566.8 259,565.5 258.8,565 258.7,562.6 258.8,562.2 259.1,561.8 260,560.7 
	260.2,560.3 260.1,560 260,559.9 259.3,559.9 258.5,560 256.4,560.4 255.7,560.7 253.1,560.9 252.1,561.2 251.6,561.2 250.3,560.6 
	250.2,561.5 250.1,562 246.3,564.6 245.5,565.3 244.9,565.6 243.9,565.9 241.8,566.6 240.2,567.6 240,567.7 240,567.5 239.9,566.5 
	239.6,566.4 239,566.2 238.7,565.6 238.7,565.3 238.8,564.7 238.7,564.5 238.6,564.4 238.7,564.1 238.6,563.9 238.2,563.4 
	238,562.7 238,562.4 238,562.1 238.1,561.9 237.7,560.9 237.6,560.6 237.7,559.9 237.4,558.5 237,558.3 236.7,557.9 236.2,557.7 
	236,557.5 235.5,557.1 235.9,556.5 235.9,556.2 235.7,556.1 235.4,556.1 235.4,556.1 235.2,556.1 235.1,555.8 234.5,555.6 
	234.4,555.2 234.6,553.8 234.4,553.6 234.3,553.2 234.4,553.2 234.5,553.4 234.7,553.5 234.9,553.2 234.9,552.7 234.5,552.8 
	234,552.8 233.7,553.1 233.6,553.4 233.4,554 232.9,554.4 232.4,554 231.9,553.2 231.3,553 231.1,553.2 231,553.4 230.9,553.6 
	230.9,554.3 231,554.9 231.6,555.2 232,555.2 233,555.4 233.2,555.6 234.1,556.1 234.6,556.3 234.1,556.4 233.3,556.4 233,556.4 
	232.3,556.4 231.9,556.8 230.9,556.2 230.6,555.9 229.6,555.4 229.7,554.9 229.8,553.8 229.9,553.3 229.9,552 229.8,551.7 
	229.6,551.6 229.5,551.3 229.6,551.2 229.4,550.3 229.1,549.4 228.5,549.1 227.8,548.4 227.6,548 227.5,547.9 226.9,547.1 
	226.9,547 226.8,546.7 226.3,546.2 227.4,545.3 228.3,545.3 228.3,545.8 229.3,545.8 229.4,544.3 230.7,542.9 232.3,542.9 
	233.1,542.4 233,541.8 232.3,541.4 232.3,540.8 232.8,540.4 234.8,539.4 234.8,538 235.4,538 235.9,536.4 237.7,535 238.1,534.1 
	239.1,533.5 241.2,533.1 242.3,530.5 244.8,530 244.8,529.4 242.4,528 240.4,527.5 238.6,526 237.4,525.9 236.8,525.4 236.8,523 
	237.3,523 237.4,522.4 236.3,522.4 236.4,521.4 237.4,520 237.4,519.4 234.8,519.4 226.6,517.5 222.6,516.6 218.5,515 216.5,514.6 
	216.5,512 218.5,511 219,510.2 219.3,509.1 221.9,506.6 222.2,504.2 224.5,503.1 224.5,502.4 224,502 223.5,502 223.5,501 
	224.5,500 224.5,499.5 227.5,499.5 229.5,497.5 229.5,497.1 230.4,496.6 232.5,496.6 233,496.1 234.1,495.2 235.4,495.1 
	235.5,495.6 236.9,495.6 238.5,498.3 238.5,498.6 239.4,498.6 239.4,499.5 238.5,499.5 238.5,500.1 239.4,500.1 239.4,500.6 
	240.4,500.6 240.4,499.8 241.5,498.6 243.9,498.6 244.8,498.1 245.2,495.6 245.7,492.9 246.1,492 247.8,489.7 250.8,489.7 
	253.3,487.2 253.3,483.7 252.9,483.2 252.9,481.8 253.4,481.3 255.3,481.2 256.2,479.7 256.2,477.2 255.8,476.8 255.8,475.4 
	257.4,475.4 257.4,474.9 258.3,474.9 258.3,474.3 259.3,474.3 260.2,473.8 260.1,472.4 259.8,472.4 259.7,469.4 258.8,468.9 
	258.7,468.4 258.3,468.3 258.2,466.3 259.1,466.9 "/>
<polygon class="st0" points="296.1,249.3 296.3,250.1 296.9,250.1 297.8,252.5 298.1,253.9 298.9,254 300.2,255.4 301.2,255.9 
	302.8,256 303.2,256.4 303.8,256.4 304.6,257.4 305.1,257.4 305.1,257.8 306.1,259.3 307.1,259.7 309.4,259.7 309.7,259.3 
	311.1,259.3 311.5,259.8 312.3,259.8 313.9,260.2 314.9,260.2 315.8,259.4 317,259.1 318.2,257.9 319.2,257.8 320.2,259.2 
	321.2,259.2 321.6,258.8 322.1,258.8 322.1,259.3 323.1,259.2 323.1,264.6 323.5,265.2 323.6,267.5 323.1,268 323.6,268.6 
	323.6,273.8 324.2,274.7 325.5,275.4 325.6,275.9 327,275.8 329.1,274.8 331.1,274.8 332.4,277.2 332.5,280.3 332.9,280.4 
	333.3,282.5 333.4,284.7 334.4,285.9 336.1,287 337.2,288.8 337.4,290.4 338.1,291.5 339.4,292.7 341.3,293.6 341.3,295 
	340.3,296.2 340.3,297.1 340.8,297.8 340.9,298.6 340.4,299.2 340,301.7 340,304.8 340.7,306.7 341.7,308.5 343.6,310.2 
	343.6,311.1 345.1,312.3 345.3,312.6 345.4,314.9 345.6,315.1 347.2,316.9 347.9,318.3 348.7,319.7 348.8,320.4 348.8,321.3 
	348.1,322.1 347.8,322.9 347.8,328 347.4,330.5 347.5,333.3 347.7,335.6 348.9,335.7 348.9,337.4 347.5,339.5 347.6,343 
	348.9,344.5 348.9,345.1 348.1,346.6 347.5,348.6 347.1,351.4 347.1,352.2 347.2,352.5 347.6,353.2 349,354.3 350,355.2 
	350.1,355.6 350,360.1 349.9,360.6 349.4,361.7 348.7,364 348.6,365.3 348.6,367.7 348.2,368.1 348.2,368.9 349.1,370.1 
	349.2,370.7 349.2,372.9 348.3,374.5 347.2,375.2 346.2,380.3 345.9,384.6 346.6,387.7 347.3,388.6 346.9,389.1 346.4,390.2 
	345.9,390.2 345.2,390.9 343.2,392.2 343.2,395.8 345.1,397.6 346,399.6 346.3,400.3 344.3,402.2 342.9,406.7 339.9,410.7 
	338.8,411.6 336.7,411 334.4,411.3 332.8,412.5 330.9,412.6 330.4,413.4 329.8,413.4 329.2,414.8 329,417.1 329.9,419.4 
	328.7,420.3 326.9,423.3 325.5,426.5 322.9,432.2 318.5,429.4 305.2,419.8 297.8,417.4 295.6,417 289,416.6 287.6,417 285.2,415.4 
	285.1,415.4 283.6,412.5 282,410.7 281.9,410.4 277.8,411.3 273.7,412.4 270.2,410.5 270.1,405 270.1,404.9 269.9,404.7 
	269.8,404.4 269.7,403.5 269.4,400.8 269.3,400.1 269.2,399.4 269.2,395.6 269.3,395.4 269.6,395 269.6,394.6 269.5,394.3 
	269.3,393.9 269.2,393.7 269.3,391.4 269.3,391.1 269.6,390.8 269.6,389.2 269.5,389.1 269.4,389 269.2,388.8 269.2,388.4 
	269.3,387.8 269.5,387.5 269.6,387.2 269.5,386.9 269.3,386.4 269.3,386.2 269.5,385.6 269.6,385.2 269.6,384.8 269.2,381.3 
	269.2,380.6 271,379.6 270.2,378 269.7,377.6 266.7,377.6 265.7,378.6 265.7,379.6 264.2,379.6 264.2,380 261.3,380 259.8,373.5 
	258.5,370.9 257.1,367.4 254.5,365.9 255.4,365.9 257.8,364.5 257.8,364 257.4,363.6 257.3,360.3 256.9,359.2 255,356.6 
	254.9,355.1 254.4,355 254.4,352.7 254.9,352.6 254.9,350.3 253.5,349.7 253.5,347.7 255.5,346.2 257.5,345.3 259.7,345.1 
	260.9,344.3 262.2,344.3 264.3,342.3 264.7,342.3 264.7,341.3 266.2,339.5 266.7,337.9 266.7,336.9 266.3,336.9 266.2,336.1 
	265.3,335.5 265.3,335 264.7,335 264.2,334.5 264.2,333.9 263.3,333.4 261.8,333 258.4,333.1 258.4,332.5 252.6,332.5 252.5,331.6 
	251.6,331.6 249.1,333.5 245.2,333.5 244.6,333.1 242.1,332.7 237.4,332.4 234.9,331.9 234.4,331.5 234,331.1 234,330 232,328 
	227.6,325.7 225.7,324.7 224.2,324.1 223.7,323.7 223.3,322.7 223.3,321.7 224.3,320.6 225.8,319.8 228.2,319.2 228.2,317.9 
	225.7,317.4 222.8,317.2 221.7,316.4 221.8,314.3 224.3,313 227.2,313 227.7,313.3 228.7,313.4 232.5,309.5 234.4,309 235,308 
	236.5,307.6 239.4,307.6 239.9,308 242.8,308.1 243.4,307.6 245.7,307.1 246.8,306.1 247.7,306 248.8,304.3 250.6,302.8 
	252.6,301.7 255,301.8 255.5,301.3 256.5,301.3 257.9,300.3 258.9,298.8 260.4,297.9 261.3,296.4 261.8,292.5 263.6,291 
	263.6,290.6 262.9,290.1 261.7,290 261.3,285.6 260.3,284.2 259.4,283.8 259.4,282.3 258.5,281.8 257.9,280.8 256.9,280.4 
	256.9,279.8 257.5,279.8 257.5,278.4 258,278.3 257.5,278 257.5,276.5 256.5,274.9 256.5,273.6 257,273 257,270.5 259.5,268.1 
	259.9,267.7 260.3,266.3 261.2,264 261.9,263.6 262.2,262 262.8,261.2 262.9,260 264.1,259.1 264.3,257.5 264.8,257.5 264.8,257.9 
	266.2,257.9 266.9,258.3 268.4,258.5 269.5,258.4 271.8,257.5 274.1,257.5 274.5,257 275,257 275.2,257.5 275.9,257.5 276.5,257 
	279.5,256.8 280.7,256.3 282.5,255.5 283.5,255 285.3,254.6 287.7,254.4 288.2,254.2 289.3,254.2 290.1,252.7 291.1,252.1 
	292.4,251.3 292.4,250.6 293.1,250.6 294.3,248.7 294.9,248.6 295.3,249.2 "/>
<polygon class="st0" points="426.2,366.6 426.4,366.6 428.1,366.6 428.7,367.1 429.7,367.1 430.1,367.3 430.4,367.6 430.6,368.1 
	430.8,368.9 431,369.1 432.5,369.9 435,371.3 437.1,372 437.6,372.4 437.7,372.9 439.2,372.9 439.5,372.4 439.7,372.4 443.4,372.3 
	445.8,373.4 447.5,373.8 448.5,374.2 450.4,374.2 450.4,374.6 451.9,374.6 452,375.1 455.4,375.6 457.3,375.6 457.3,376.1 
	457.7,376.1 458.3,375.5 460.7,375.5 462.1,376 462.7,376.8 464.3,376.8 464.7,376.3 465.2,376.3 468.7,378.4 469.1,378.7 
	469.8,386.4 470,389.5 472.4,389.4 473.5,392 477.5,395.3 484,401 492,401.6 493.1,399.9 498.1,399.8 500.8,398 502.4,398.4 
	511.2,403.3 518.9,419.4 517.4,421.2 518.4,421.6 518.9,422.6 519.4,422.6 519.5,424.5 520.8,424.5 523.5,426.5 526.3,428.8 
	527.8,428.8 529.4,431.1 530.8,433.4 529.6,438.3 534,436 534,436.6 530.4,440.8 530.2,441.5 530.1,441.9 528.4,443.7 528.3,443.8 
	528.2,446.2 528.1,446.8 527.8,447.7 526.8,448.3 525,449.8 525,453.4 524.9,453.6 524,454.6 523.7,455 523.6,455.1 523.7,455.3 
	523.8,455.4 524.4,455.6 525.5,456.5 526.1,457.1 526.6,458 526.6,458.2 526.7,459.3 526.6,459.9 526.2,461 526.2,463.5 
	525.5,463.4 525.3,463.6 524.8,463.9 524.3,464.3 522.8,466.7 521.4,468.5 520.8,468.8 520.4,469.1 520,469.2 518.4,470.5 
	518.2,470.6 518.1,470.5 517.9,468.3 517.7,467.7 517.5,467.6 517.2,467.6 516.9,467.7 516.3,468.2 514.9,470.1 514.9,470.1 
	514,470.1 512.8,468.4 512,467.3 511.6,467.3 511.5,467.8 508.6,467.9 508,468.4 507.6,468.4 507.4,468 506,468 505.5,467.9 
	503.9,466.5 503.2,466.5 503.1,466.9 501.7,468.2 501.3,468.4 500.3,468.6 499.6,468.7 498.5,469.2 498.1,469.5 497.6,469.1 
	494.4,469.2 494.1,469.1 493.8,468.9 492.3,466.6 492,466.3 491.7,466.2 491.2,466.1 490.7,466.2 490.4,466.4 489.6,467.1 
	487.9,468.9 486.3,470.8 484.2,470.8 483.2,470 482.9,470.3 481.7,470.4 480.6,471 480.1,472 479.8,473.8 479,474.8 478.3,476.4 
	476.4,478 475.1,478 473,478.6 470.5,479.6 468.6,481.5 468.2,482.9 467.6,483 466.6,484 466.5,485 465.7,485 463,487.2 
	462.2,489.2 461.1,490.3 460.3,490.6 459.1,491.9 458.9,492.2 458.8,492.4 458.9,496.7 458.8,497.2 458.8,497.4 457.9,498.7 
	457.6,498.9 456.4,499.1 455.9,499.3 455.4,499.7 455.2,499.9 454.8,500.5 454.1,501 453.8,501 453.4,501 452.7,500.6 451.5,499.7 
	451.1,499.5 450.5,498.6 450.2,498.4 449.1,498.1 448.4,497.8 443.5,497.8 443.5,497.3 442.4,497.1 441.2,496.7 440.9,496.6 
	440.4,494.9 439.9,494.9 439.5,494.8 437.6,493.5 435,492.1 434.7,492 434.3,492.1 432.4,494 431.5,494.6 430.5,495.6 430.2,495.9 
	428.6,496.6 427.6,497.6 427.1,497.8 424.5,498.6 423.7,500.1 423.1,500.1 423.2,500.5 422.2,500.6 420.1,499.7 414.6,499.8 
	413.3,500.3 410.3,501.7 409.3,502.3 408.6,503.1 407.5,504.7 405.6,508.8 404.5,510.7 403.2,512 401.8,513.1 401.5,513.2 
	396.6,513.3 395.3,513.2 395.1,513.1 394.7,513.2 394.2,513.4 392.3,516.1 390.1,518.3 390.1,519.3 387.9,519.6 386.7,520 
	385,520.6 384.1,521.2 382.4,521.5 381.4,521.9 381.3,522.1 381.2,522.2 381.3,522.6 382.4,523.8 382.7,523.9 384.1,523.9 
	384.1,524.9 383.4,526.1 381.7,529 381.2,530.2 381,530.8 381,531.3 381.2,531.7 382.2,533.5 382.3,533.8 382.4,535.8 382.3,536.1 
	382.1,536.4 381.8,536.5 378.7,537.4 378.3,537.4 377.7,537.3 377.1,537 376.7,536.8 376.3,536.8 376.1,536.9 375.9,537.1 
	375.8,541.5 374.8,542.4 373.5,542.4 372.7,543.2 371.4,543.6 369.8,543.9 369.1,545.4 368,545.6 367.5,546.4 367.3,546.9 
	367.3,547.3 367.6,548 368,548.4 368.3,548.8 369.8,549 369.8,550.4 368.5,550.8 366.5,551.6 364.3,552.5 363.9,552.6 363.5,553 
	363.1,553.2 362,553.7 360.8,554.5 360.7,555.5 360.2,555.8 359.1,556.8 358,557.4 357.8,557.5 355.7,557.6 355.4,557.6 355.1,558 
	354.8,558.1 353.7,558.1 353.3,558 352.3,557.3 352.2,557.2 352.2,557 352.7,556.2 353,555.9 353,555.4 352.2,555 351.6,553.4 
	351.1,552.3 350.9,552.1 349.9,551.6 349.6,551.6 349.3,551.7 349.1,552 349,552 348.6,551.7 347.7,551.4 345.2,551.1 345,550.9 
	344.6,550.2 344.6,548.6 345.3,548.1 346.3,545.2 346.8,545.2 347.4,545.6 350.9,545.6 352,542.1 352.1,541.9 352.3,541.7 
	352.8,541.6 353,541.4 353.5,540 353.7,539.5 354.8,537.8 354.9,537.6 354.9,535.8 354.8,535.6 354.5,535.4 354.1,535.1 
	353.8,535.1 353.4,535.3 352.7,535.9 352.5,536 352,536.1 351.7,536 351.2,535.7 349.5,535.6 349.3,535.6 349.1,535.4 348.6,534.7 
	348.1,533.7 347.9,533.5 347.9,533.2 348,532.9 348.3,532.6 348.3,532.5 348.3,531.1 347.9,530.5 347.9,530.2 348.9,527.7 
	348.9,527.6 347.5,526.4 347.2,526.2 346.8,526.2 346.3,526.4 345.7,526.7 345,526.7 344.5,526.2 344.5,525.7 347.8,524.7 
	347.8,523.8 346.1,523.7 345.9,523.7 345.8,523.5 345.8,523.1 345.6,522.8 345.4,522.8 343.8,522.7 343.8,522 344,521.8 
	344.3,521.6 345.7,521.3 345.8,521.2 345.9,521 345.8,520.1 345.8,520 345.5,519.8 344.5,519.6 344.3,519.5 344.3,519.3 
	344.3,518.6 344.4,518.3 344.7,517.8 344.7,516.9 344,516.8 343.9,516.7 343.8,514.8 344.2,514.4 344.3,512.4 344.4,512.1 
	344.7,511.9 344.7,511.4 343.9,511.3 343.8,511.2 343.7,509.8 343,509.8 342.8,509.8 342.3,510.2 341.9,510.2 341.2,509.7 
	341.2,505.4 341.2,504.6 341.2,504.4 341.6,504 341.9,503.7 343.1,503.3 343.1,502.5 341.7,501.2 341.6,500.4 342.2,500.3 
	342.2,500 342.2,499.7 342,499.3 341.3,498.6 341,498.5 340.5,498.3 340,498.1 339.8,497.9 339.8,497.5 340.6,497.4 340.7,497.4 
	340.9,496.8 341.1,496.7 341.3,496.7 342.5,497.8 342.7,497.9 343.1,497.8 343.2,497.7 343.6,496.3 343.6,496 343.8,495.9 
	345.9,494.9 347.2,494.5 347.5,494.4 349.1,494.4 349.5,494.5 349.9,494.7 350.1,494.7 351.9,494.7 352,494.7 352.7,496 353,496.3 
	353.3,496.3 353.6,496.2 353.9,496 355.8,495.8 358,495.2 360.7,494.3 360.9,494.2 361.2,493.9 362.3,493 362.9,492.8 363,492.7 
	363.6,491.6 363.8,491.4 364.1,491.3 364.5,491.4 364.7,491.6 365,492.6 365.2,492.8 366,493.5 366.5,493.7 366.7,493.9 
	367.1,494.9 367.2,493.5 367.3,493.4 367.4,493.4 367.8,493.5 367.9,493.8 368,495.8 368.2,496.1 368.4,496.4 369.1,496.9 
	369.8,497.7 370.5,497.7 370.9,496.6 371,496.2 371.5,495.4 372,494.7 373.1,493 374,491.8 374.5,491.3 374.6,491.2 378.3,491.2 
	378.6,491.3 378.9,491.4 380,492.3 380.4,492.5 380.6,492.6 382.6,492.6 382.7,492.5 383.1,491.7 383.4,491.6 383.9,491.6 
	384.4,491.7 386.1,492.6 386.3,493.4 386.4,493.6 387.5,494 388,494.4 389.2,495.6 389.9,495.6 391.9,492.3 392.4,491 393.1,491 
	393.9,492.2 394.7,493.4 394.8,495 395,495.4 395.3,495.5 395.6,495.5 396.1,495.4 397,495.2 397.5,495 398.5,494.9 398.8,493.9 
	399,494.9 399.8,494.9 400.2,493.6 401.4,492.6 401.7,492.5 403.1,492.4 403.3,492.3 403.7,490.5 403.8,490.2 404,489.8 
	404.1,489.5 403.9,486.4 403.8,485.6 403.5,482.2 403.1,479.3 402.9,478.8 402.2,477.5 401.5,476.7 400.9,476.1 400,475.6 
	398.1,475.6 398,475.1 397.2,475.1 396.9,474.6 396.2,474.6 395.9,472.8 395.4,472 395.4,471.6 395.6,471 396,470.5 396,470.2 
	396,469.6 395.9,469.2 395.6,468.7 395.5,468.4 395.5,467.8 395.6,467.5 395.9,467.1 395.9,466.8 395.9,465.4 395.8,464.8 
	395.7,464.4 395.5,464.1 395.4,463.5 395.4,460.6 395.3,457.6 395.2,457.3 395,456.9 394.9,456.6 394.8,454.3 394.3,453.2 
	393.7,451.1 393.7,450.9 392,449.5 391.8,449.5 390.7,449.4 390,449.4 388,448.8 387.4,448.5 387,448.5 386.4,448.6 386,448.8 
	385.8,448.9 384.4,449 384.4,448.5 384.8,448.5 384.8,447 384.8,446.7 384.7,446.3 382.8,442.6 382.2,440.7 381.3,437 381.1,436.7 
	380.3,435.9 380.1,435.6 379.7,434.1 379.6,433.9 379.3,433.5 379.1,433.1 378.1,432.5 377.5,432.1 376.9,431.2 376.5,430.5 
	376.2,430.3 375.9,430.3 374.9,430.3 374.6,430.3 374.3,430.4 373.9,430.7 373.7,430.8 372.5,430.8 372.4,430.8 372.2,430.3 
	371.7,428.4 371.3,427.3 371.1,427.1 370.2,426.8 369.3,425.6 369.1,425.5 367.6,425.5 367.4,425.4 366.6,423.7 366.4,423.6 
	366.3,423.6 365.2,423.5 365,423.4 364.8,423.1 364.6,423 360.5,423 357.6,423.1 357.2,423.1 355.5,423.7 354.7,424.5 354.5,424.6 
	352.9,424.5 352.5,424.5 350.8,423.2 350.5,423.1 349.4,421.9 349.1,421.3 349.1,420.7 349.2,420.4 349.5,420.2 351.9,420.2 
	352.1,420.3 352.4,420.5 352.6,420.6 352.8,420.6 353.1,420.5 353.4,420.2 353.7,420.1 353.9,420.1 354.4,420.3 354.8,420.4 
	355.3,420.5 360.8,420.6 361.3,420.6 361.7,420.9 362.1,421 365.3,421 365.4,419.3 365.4,419.1 366.1,418.1 366.3,417.9 
	366.6,415.5 366.6,414.8 366.6,413.2 366.4,410.3 366.3,410 365.8,409.2 365.4,407.3 365.4,407.2 365.3,404.4 366.2,402.8 
	366.2,402.3 365,402.1 364.6,401.9 361.8,401.8 361.2,401.5 360.9,401.3 360.7,401 360.4,400.3 360.1,399.3 359.4,397.8 
	359.2,396.3 359.1,395.9 358.1,394 357.9,393.7 357.8,392.1 358.2,391 359.2,390.5 362.6,390.3 362.6,389 368,388.9 368.9,389.5 
	369,393.4 370.1,394.4 370.1,395.6 370.3,395.8 371.6,395.8 371.9,395.4 372.1,395.3 372.6,395.3 372.8,395.5 372.9,395.8 
	374.5,395.8 375.3,396.8 376.4,398.8 377.3,399.1 377.7,399.1 377.9,398.9 378,398.5 377.9,396.7 377.4,394.8 376.3,394.7 
	376.1,394.6 375.9,394.2 376,392.3 376.2,391.9 377.3,390.9 377.6,390.8 379.1,390.8 379.4,390.9 379.8,391.2 380.1,391.3 
	380.4,391.3 381.3,390.4 381.8,390.4 381.9,392.4 382,392.5 382.3,392.7 384.5,393.4 387.1,394.5 388.4,394.8 389.4,395.6 
	389.6,395.8 389.7,396.6 390.3,396.6 390.6,394.7 390.7,394 390.6,391.3 390.6,391 390.1,390.1 389.6,389.2 389.3,388.8 
	388.9,388.7 388.3,388.4 388.2,388.2 387.9,387 387.9,386.6 388.1,386.5 390.4,385.6 390.9,385.3 391,385 391.1,383.9 391.1,381.5 
	394.2,381.4 397.1,383.2 398.9,384.1 399.5,384.7 400.8,384.7 401.2,384.5 403.4,383.7 404.8,383.5 410.3,383.5 411.5,382.9 
	413,382.4 413.2,382.2 414.1,380.5 414.2,379.5 415,378.5 415,376.5 414.7,376.1 414.6,375.8 414.6,375.3 414.6,375.1 415.5,374.2 
	416.4,374.1 417,373.5 417.4,372.3 417.8,371.9 418.3,371.3 419.6,370 419.9,369.8 420.2,369.7 421.7,369.5 421.8,369.4 
	421.8,368.1 421.4,367.7 421.4,366.8 422.4,366.7 422.6,366.9 422.8,367.1 422.9,368.2 424.4,368.1 424.7,367.8 425.2,366.6 
	425.5,366.3 425.7,366.3 425.9,366.3 "/>
<polygon class="st0" points="341.2,509.7 341.9,510.2 342.3,510.2 342.8,509.8 343,509.8 343.7,509.8 343.8,511.2 343.9,511.3 
	344.7,511.4 344.7,511.9 344.4,512.1 344.3,512.4 344.2,514.4 343.8,514.8 343.9,516.7 344,516.8 344.7,516.9 344.7,517.8 
	344.4,518.3 344.3,518.6 344.3,519.3 344.3,519.5 344.5,519.6 345.5,519.8 345.8,520 345.8,520.1 345.9,521 345.8,521.2 
	345.7,521.3 344.3,521.6 344,521.8 343.8,522 343.8,522.7 345.4,522.8 345.6,522.8 345.8,523.1 345.8,523.5 345.9,523.7 
	346.1,523.7 347.8,523.8 347.8,524.7 344.5,525.7 344.5,526.2 345,526.7 345.7,526.7 346.3,526.4 346.8,526.2 347.2,526.2 
	347.5,526.4 348.9,527.6 348.9,527.7 347.9,530.2 347.9,530.5 348.3,531.1 348.3,532.5 348.3,532.6 348,532.9 347.9,533.2 
	347.9,533.5 348.1,533.7 348.6,534.7 349.1,535.4 349.3,535.6 349.5,535.6 351.2,535.7 351.7,536 352,536.1 352.5,536 352.7,535.9 
	353.4,535.3 353.8,535.1 354.1,535.1 354.5,535.4 354.8,535.6 354.9,535.8 354.9,537.6 354.8,537.8 353.7,539.5 353.5,540 
	353,541.4 352.8,541.6 352.3,541.7 352.1,541.9 352,542.1 350.9,545.6 347.4,545.6 346.8,545.2 346.3,545.2 345.3,548.1 
	344.6,548.6 344.6,550.2 345,550.9 345.2,551.1 347.7,551.4 348.6,551.7 349,552 349.1,552 349.3,551.7 349.6,551.6 349.9,551.6 
	350.9,552.1 351.1,552.3 351.6,553.4 352.2,555 353,555.4 353,555.9 352.7,556.2 352.2,557 352.2,557.2 352.3,557.3 353.3,558 
	353.7,558.1 354.8,558.1 355.1,558 355.4,557.6 355.7,557.6 357.8,557.5 358,557.4 359.1,556.8 360.2,555.8 360.7,555.5 
	361.6,555.5 363.4,557.8 366.1,559.9 367.7,560.3 369.3,560.8 369.6,561 370,561.4 371.5,561.4 371.5,562.3 370.4,564.4 
	369.6,564.9 366.8,565.6 366.1,566.4 364.6,566.6 364.6,567.4 363.7,567.5 363.1,566.4 362.6,566.4 362.6,568.4 362.1,569 
	362.1,569.5 360.1,569.5 359.1,570.5 358.6,570.5 358.6,570 357.6,570 357.6,573.4 357.2,573.9 357.2,574.4 358.6,575.6 359.1,577 
	359.5,577.3 360.6,578.1 360.6,579.4 359.7,579.5 359.7,580.1 360.6,581.2 361.1,582 361.3,583 361.3,585 362.1,585.9 364.1,588 
	364.7,589 364.8,589.3 364.8,593.4 364.3,594.3 362.7,596.4 361.7,596.5 360.4,597.5 359.3,597.5 359.3,596.6 358.8,596.6 
	358.1,593 357.7,592.1 357.2,591.7 356.1,591.1 353.8,591 353.8,590.6 352.3,590 352.2,588.5 351.1,587.5 350.1,587.5 350.3,594.4 
	350.7,595 350.8,598.6 349.3,598.6 348.9,598.2 348,598.2 347,600.6 346.5,601.5 346.4,603 345.6,603.8 345.5,604.4 345.3,604.8 
	344.7,606.6 344.7,607.3 344.4,607.9 344.5,608.6 344.6,609.3 344,610.5 343.6,611.1 343.2,612.4 342.5,610 341.4,608.3 
	340.4,605.5 340.3,604.8 340.1,604.4 339.1,603.8 338.9,603.5 338.8,603.3 339,603.2 340.3,603 340.8,602.8 341.7,602.1 
	342.1,601.6 342.1,601.3 342,600.7 341.7,600.2 341.2,599.7 340.5,599.3 339,599.1 336,598.5 334.6,597.5 334.1,597.3 333.6,597.3 
	332.7,597.1 331,596.3 330.5,596.3 330.1,596.4 329.9,596.8 329.7,597.5 329.5,597.7 328.7,598 327.1,598.4 325.4,599.2 325,599.2 
	323.6,598.4 323.4,598.1 323.3,597.4 323.1,597.3 322.4,597.3 321.9,597.2 321.8,596.9 321.8,596.7 322,596.5 322.7,596.1 
	322.9,595.8 322.9,595.3 322.7,594.9 322.1,594.7 320.3,594.8 319.9,595 318.4,595.2 317.9,595.1 317.7,594.8 317,594.8 316.4,595 
	315.6,594.9 315,594.8 313.7,594.8 313.7,596.9 313.8,597.9 314.3,599 314.8,599.9 316.3,601.4 316.4,601.7 316.4,602 316.3,602.2 
	316,602.4 313.1,602.1 312.5,601.8 312.2,601.9 311.9,602.1 311.3,602.7 310.5,604.5 310.2,604.7 310,604.7 309.5,604.4 
	309.1,604.1 308.9,603.7 308.8,601.3 308.7,600.9 308.4,600.7 308.1,600.7 307.5,600.9 307,601.2 305.6,601.3 304,601.3 
	303.6,601.4 303.4,601.6 303.2,602.2 303,602.8 302.7,603.2 302.4,603.3 301.3,603.4 299.7,602.6 299.1,602.4 298.7,602.4 
	298.3,602.4 296.8,603.4 296.2,603.7 295.5,603.8 294.9,603.7 294.4,603.4 292.4,601.5 291.8,601 289.7,600.3 289.6,600.2 
	289.7,600 290.4,599.9 291,599.7 291.4,599.3 291.9,598 292.7,597.5 292.9,597.2 292.9,597 292.7,596.8 291.9,596.7 290.9,596.2 
	289.4,595.7 288.9,595.5 286.5,595.3 285.8,595.1 285.1,594.6 284.7,594 284.1,592.7 283.8,591.6 283.6,591.2 284.5,589.9 
	285.2,589.8 285.7,589.4 287.6,589.4 287.8,588.5 289.3,587.7 289.6,587.5 289.9,587.5 290.7,587.8 290.8,588.1 290.8,588.9 
	291.8,588.9 292.2,588.2 292.3,586.8 293.6,586 293.8,584.9 294.6,583.8 294.8,582.7 295,582.5 295.6,582.2 295.6,580 295.7,579.5 
	296.2,578.9 294.3,578.5 291.3,577.7 289.7,577.3 288.7,576.1 287,573 285.7,571 285.7,567.9 286.1,565.6 286.7,564.7 288.1,563.7 
	291,562.8 293.9,562 297.1,561.4 303,561.1 306.5,561.1 309.6,561.3 309.6,558.4 309.2,557.7 309.1,556.3 307.7,554.4 307.6,552.8 
	305.7,552.8 304.4,551.4 303.6,551.3 302,549.9 301,549.4 300.6,549.3 300.6,548.4 302,547.2 302,546.4 300.6,545.2 300.6,542.9 
	300.1,542.8 299.6,541.8 299.3,540.4 298.6,538.4 298.6,536.5 299.1,536.5 299.1,533.9 296.6,531.9 296.6,531.4 297.6,530.4 
	297.6,529.5 298,529.5 301.9,527.4 304,526.5 312.4,521.8 318.5,518.1 322.7,515.9 327.1,514.1 331.8,511.9 "/>
<polygon class="st0" points="182.4,366.5 183.4,367.4 184.8,367.4 186.5,365.8 187.3,365.7 188.7,364.7 189.3,364.4 189.6,363.6 
	191.6,363.5 192.1,362.6 192.7,362.6 192.7,363.2 193.2,363.7 194.7,363.7 196,364.6 196,365.2 195.7,365.6 195.1,365.6 195.1,367 
	199.1,368 199.8,368 200.4,367.8 201.5,367.6 201.8,366.7 203,366.6 203.4,367.7 203.7,366.8 204.1,366.8 204.8,368.1 205.4,368.1 
	206.7,366.2 207.4,366.2 209.7,367.1 210.6,367.2 211.3,367.2 212.6,366.4 213.1,366.3 214.2,366.3 214.2,366.7 214.6,367.2 
	215.7,367.2 216.3,366.8 217.6,366.7 218.2,366.2 218.7,366.6 220.1,366.7 227,364.4 232.3,362.3 236.4,362.3 245.2,362.7 
	248.8,363.6 254.5,365.9 257.1,367.4 258.5,370.9 259.8,373.5 261.3,380 249.1,394.3 240.3,403.8 241.7,410.2 248.5,426.4 
	249.8,426.8 249.8,427.4 249,428.3 248.9,430.3 250.4,431.4 250.4,432.8 248.9,432.8 248.9,433.3 249.5,433.7 250.8,433.7 
	251.4,434.4 251.5,436.6 252.4,438.2 256.2,438.2 256.4,438.2 256.5,438.4 256.6,438.8 256.2,440 255.7,441.2 254.8,443.6 
	253.9,445.1 253.9,445.7 256.3,445.7 256.4,446.6 257.4,446.6 257.4,447.1 256.3,447.2 255.8,447.5 255.8,447.8 256.8,448.1 
	256.8,449.7 257.3,449.7 257.8,449.1 258.2,449.1 258.2,449.9 257.6,451.8 257.3,454.5 256.9,454.9 256.8,456.7 256.5,457.7 
	255.3,458.4 255.4,460 255.9,460.4 255.8,460.9 255.1,460.9 254.5,461.4 254.5,461.7 255.8,462.5 255.8,463.4 254.9,463.4 
	254.8,462.9 253.3,462.9 252.8,463.2 246.1,464.3 237.1,466.8 231.7,466.5 227.9,462.7 225.7,459.5 219.3,451.4 215.8,451 
	209.9,451 207.1,452.7 201,455.6 196.5,456.6 193,452.8 190.2,449.1 187.7,443.4 187.7,437.8 188.2,437.4 188.2,436.1 185.9,433.8 
	185.3,433 184.3,433.1 184.3,435.3 183.7,435.9 181.9,436 180,433.5 179.3,431.9 178.4,430.8 177.6,428.3 177.3,426.3 176.4,425.3 
	176.4,424.5 177.8,423.4 177.9,422.2 177,421.8 176.5,421 175.4,421.1 174.6,420.1 171.6,417.5 171.1,416.1 171.2,413.5 
	171.8,412.6 172.5,412.1 172.7,410.8 174.5,408.6 174.6,405.3 172.7,405.2 171.2,404.6 170.6,404.2 170.2,403.7 170.1,402.7 
	169.7,401.9 168.7,400.6 168.7,400 167.3,398.2 167.2,396.4 166.5,395.8 166.5,395.4 167.8,394.4 167.8,393.3 167.3,392.6 
	167.4,391 168.3,390 168.4,388.5 167.9,388 167.9,387.5 168.4,387.1 166.6,384.6 167,382.6 165,381.1 165,380.9 163.4,377.4 
	162.7,374.6 162.2,372.2 162.2,371.3 162.7,371.2 162.7,370.1 163.1,368.9 163.2,367.3 164.1,364 166.1,360.7 167.7,357.1 
	169.6,353.3 170.1,355.1 171.6,356.6 172.2,358.3 173,359.4 173,361 173,362.3 173.6,362.9 175.4,363 177.6,364.2 179.3,365 
	180.9,366.4 "/>
</svg>
