<?xml version="1.0" encoding="utf-8"?>
<!-- Generator: Adobe Illustrator 26.0.1, SVG Export Plug-In . SVG Version: 6.00 Build 0)  -->
<svg version="1.1" id="Layer_1" xmlns="http://www.w3.org/2000/svg" xmlns:xlink="http://www.w3.org/1999/xlink" x="0px" y="0px"
	 viewBox="0 0 595.3 841.9" style="enable-background:new 0 0 595.3 841.9;" xml:space="preserve">
<style type="text/css">
	.st0{fill:#B69767;}
</style>
<g>
	<path class="st0" d="M470.9,446.9H305.1c-0.8,0-1.5-0.7-1.5-1.5V296.6c0-0.5,0.2-0.9,0.6-1.2c0.4-0.3,0.9-0.4,1.3-0.3l13.6,3.7
		c0.3,0.1,0.6,0.3,0.9,0.6l47,69.7l17,13.5l27.8,19.7l60,41.9c0.5,0.4,0.8,1.1,0.6,1.7C472.1,446.5,471.6,446.9,470.9,446.9z
		 M306.6,443.9h159.5l-56.1-39.2L382.1,385l-17.3-13.6c-0.1-0.1-0.2-0.2-0.3-0.3l-46.8-69.4l-11.2-3V443.9z"/>
</g>
<g>
	<path class="st0" d="M305.1,446.9H151.3c-0.8,0-1.4-0.6-1.5-1.3c-0.1-0.7,0.4-1.5,1.1-1.6l8.9-2.3l10.1-7.2l4.7-9.9l1.9-8.4
		l-37.9-33.4l-5.4-1.4c-0.3-0.1-0.6-0.3-0.8-0.6l-9-12.1l-7.5-0.9c-0.4,0-0.7-0.2-1-0.5l-9.4-10.9l-6.8-4.2l-3,1
		c-0.5,0.2-1,0.1-1.4-0.3l-5.8-4.6c-0.1,0-0.1-0.1-0.1-0.1l-7.3-7.6l-3.1-2.7l-1,0.1c-0.1,0-0.1,0-0.2,0l-7.9,0.1l-4.6,1l-8.1,2.2
		c-0.1,0-0.2,0-0.3,0.1l-5,0.2c-0.6,0-1.1-0.3-1.4-0.8s-0.3-1.1,0-1.6l1.9-2.9l-0.1-5.4c0-0.6,0.3-1.1,0.8-1.4l12.4-6.4l5.4-4.3
		c0.1-0.1,0.3-0.2,0.5-0.3l16.3-5.2l13.9-11.7c0.1-0.1,0.3-0.2,0.4-0.3l23.8-9l15.7-7.2l22.6-22.2c0.1-0.1,0.2-0.1,0.3-0.2l11.1-6.8
		l9.2-8.8l-1.3-5.9c-0.2-0.8,0.3-1.5,1-1.8l5.8-1.8l5.8-2.9c0.2-0.1,0.4-0.2,0.6-0.2L211,234l6.8-1c0,0,0.1,0,0.1,0l4.2-0.2l6.8-4.2
		c0.1-0.1,0.2-0.1,0.4-0.2l11-3.2c0.7-0.2,1.4,0.1,1.7,0.7l2.6,4.9l2.7,0.1l7.1-1.9c0.6-0.2,1.3,0.1,1.7,0.6l7.2,11.2
		c0.1,0.1,0.1,0.2,0.1,0.3l11.5,31.7c0,0.1,0.1,0.2,0.1,0.3l1.6,13.1l16.3,5.3l12.6,3.5c0.7,0.2,1.1,0.8,1.1,1.4v148.8
		C306.6,446.2,305.9,446.9,305.1,446.9z M161.8,443.9h141.8V297.7l-11.6-3.2l-17.3-5.6c-0.6-0.2-1-0.7-1-1.2l-1.7-13.9l-11.4-31.4
		l-6.5-10.1l-6.2,1.7c-0.1,0-0.3,0.1-0.4,0.1l-3.8-0.1c-0.5,0-1-0.3-1.3-0.8l-2.4-4.6l-9.6,2.8l-6.9,4.3c-0.2,0.1-0.5,0.2-0.7,0.2
		l-4.5,0.2l-6.8,1c-0.1,0-0.1,0-0.2,0l-15.2,0.6l-5.6,2.9c-0.1,0-0.2,0.1-0.2,0.1l-4.6,1.4l1.2,5.3c0.1,0.5,0,1-0.4,1.4l-9.9,9.5
		c-0.1,0.1-0.2,0.1-0.3,0.2l-11.1,6.8l-22.7,22.3c-0.1,0.1-0.3,0.2-0.4,0.3l-16,7.3l-23.7,8.9l-13.9,11.7c-0.1,0.1-0.3,0.2-0.5,0.3
		l-16.3,5.2l-5.3,4.2c-0.1,0.1-0.2,0.1-0.2,0.2l-11.7,6.1l0.1,5c0,0.3-0.1,0.6-0.2,0.8l-0.6,0.9l2-0.1l8-2.2l4.8-1
		c0.1,0,0.2,0,0.3,0l7.9-0.1l1.6-0.2c0.4-0.1,0.9,0.1,1.2,0.4l3.6,3.2c0,0,0.1,0.1,0.1,0.1l7.2,7.5l5.1,4l2.9-1
		c0.4-0.1,0.9-0.1,1.3,0.2l7.6,4.7c0.1,0.1,0.2,0.2,0.3,0.3l9.2,10.7l7.5,0.9c0.4,0,0.8,0.3,1,0.6l9.1,12.2l5.2,1.4
		c0.2,0.1,0.4,0.2,0.6,0.3l38.8,34.2c0.4,0.4,0.6,0.9,0.5,1.5l-2.1,9.4c0,0.1-0.1,0.2-0.1,0.3l-4.9,10.4c-0.1,0.2-0.3,0.4-0.5,0.6
		L161.8,443.9z"/>
</g>
<g>
	<path class="st0" d="M421.7,632.7h-1.6l-29.3-0.2c-0.2,0-0.4,0-0.6-0.1L338,608.6c-0.1,0-0.2-0.1-0.3-0.2l-33.5-24.3
		c-0.4-0.3-0.6-0.7-0.6-1.2V445.4c0-0.8,0.7-1.5,1.5-1.5h165.8c0.3,0,0.6,0.1,0.9,0.3l13.7,9.6c0.3,0.2,0.5,0.5,0.6,0.8l17.6,58.5
		l14.3,28.7c0.1,0.2,0.1,0.4,0.2,0.6l1.8,23.2l5.7,15c0,0.1,0,0.1,0.1,0.2l3.3,12.8l6.6,22.7l6.4,6.7c0.4,0.4,0.5,1.1,0.3,1.6
		s-0.7,0.9-1.4,0.9l-73.7-0.8l-45.2,8.1C421.9,632.7,421.8,632.7,421.7,632.7z M391.1,629.5l30.4,0.2l45.2-8.1c0.1,0,0.2,0,0.3,0
		l70.3,0.8l-4.2-4.4c-0.2-0.2-0.3-0.4-0.3-0.6l-6.7-23.1l-3.3-12.8l-5.8-15.1c-0.1-0.1-0.1-0.3-0.1-0.4l-1.8-23.1l-14.3-28.5
		c0-0.1-0.1-0.2-0.1-0.2l-17.5-58.1l-12.9-9H306.6v135.2l32.8,23.8L391.1,629.5z"/>
</g>
<g>
	<path class="st0" d="M305.1,584.4c-0.3,0-0.6-0.1-0.9-0.3l-0.7-0.5c-0.1,0-0.1-0.1-0.2-0.1L284,564.7l-25.1-24.1l-103.5-25.2
		c-0.3-0.1-0.5-0.2-0.7-0.4l-13.1-13.1l-24.1-27.3c-0.2-0.3-0.4-0.6-0.4-1l-0.3-16.2c0-0.6,0.3-1.1,0.8-1.3l11.2-6.2
		c0.1-0.1,0.2-0.1,0.3-0.1l21.8-5.8c0.1,0,0.3-0.1,0.4-0.1h153.8c0.8,0,1.5,0.7,1.5,1.5v137.5c0,0.6-0.3,1.1-0.8,1.3
		C305.6,584.3,305.3,584.4,305.1,584.4z M156.5,512.5L260,537.7c0.3,0.1,0.5,0.2,0.7,0.4l25.4,24.4l17.6,17V446.9H151.5l-21.4,5.7
		l-10.2,5.7l0.3,14.7l23.6,26.8L156.5,512.5z"/>
</g>
</svg>
